<mxfile host="app.diagrams.net" modified="2023-12-04T19:02:54.581Z" agent="Mozilla/5.0 (Windows NT 10.0; Win64; x64) AppleWebKit/537.36 (KHTML, like Gecko) Chrome/119.0.0.0 Safari/537.36" etag="hEJH1XbxELqqr9SAs94q" version="22.1.5" type="onedrive">
  <diagram name="Page-1" id="JG9FBwNWxL3qcM8FK885">
    <mxGraphModel grid="1" page="1" gridSize="10" guides="1" tooltips="1" connect="1" arrows="1" fold="1" pageScale="1" pageWidth="827" pageHeight="1169" math="0" shadow="0">
      <root>
        <mxCell id="0" />
        <mxCell id="1" parent="0" />
        <mxCell id="4_nCc2Uz1ycMVief2jAk-1" value="0x09" style="rounded=0;whiteSpace=wrap;html=1;" vertex="1" parent="1">
          <mxGeometry x="-128.78999999999996" y="545" width="60" height="70" as="geometry" />
        </mxCell>
        <mxCell id="4_nCc2Uz1ycMVief2jAk-2" value="0x0E" style="rounded=0;whiteSpace=wrap;html=1;" vertex="1" parent="1">
          <mxGeometry x="-68.78999999999996" y="545" width="60" height="70" as="geometry" />
        </mxCell>
        <mxCell id="4_nCc2Uz1ycMVief2jAk-3" value="0x0D" style="rounded=0;whiteSpace=wrap;html=1;" vertex="1" parent="1">
          <mxGeometry x="-8.789999999999964" y="545" width="60" height="70" as="geometry" />
        </mxCell>
        <mxCell id="4_nCc2Uz1ycMVief2jAk-4" value="0x19" style="rounded=0;whiteSpace=wrap;html=1;" vertex="1" parent="1">
          <mxGeometry x="51.210000000000036" y="545" width="60" height="70" as="geometry" />
        </mxCell>
        <mxCell id="4_nCc2Uz1ycMVief2jAk-5" value="0x0F" style="rounded=0;whiteSpace=wrap;html=1;" vertex="1" parent="1">
          <mxGeometry x="111.21000000000004" y="545" width="60" height="70" as="geometry" />
        </mxCell>
        <mxCell id="4_nCc2Uz1ycMVief2jAk-6" value="0x17" style="rounded=0;whiteSpace=wrap;html=1;" vertex="1" parent="1">
          <mxGeometry x="171.21000000000004" y="545" width="60" height="70" as="geometry" />
        </mxCell>
        <mxCell id="4_nCc2Uz1ycMVief2jAk-7" value="0x06" style="rounded=0;whiteSpace=wrap;html=1;" vertex="1" parent="1">
          <mxGeometry x="270.21000000000004" y="545" width="60" height="70" as="geometry" />
        </mxCell>
        <mxCell id="4_nCc2Uz1ycMVief2jAk-8" style="edgeStyle=orthogonalEdgeStyle;rounded=0;orthogonalLoop=1;jettySize=auto;html=1;exitX=0.5;exitY=1;exitDx=0;exitDy=0;entryX=0.5;entryY=1;entryDx=0;entryDy=0;strokeColor=#FF0000;" edge="1" parent="1" source="4_nCc2Uz1ycMVief2jAk-13" target="4_nCc2Uz1ycMVief2jAk-38">
          <mxGeometry relative="1" as="geometry">
            <Array as="points">
              <mxPoint x="600.21" y="642" />
              <mxPoint x="321.21000000000004" y="642" />
            </Array>
          </mxGeometry>
        </mxCell>
        <mxCell id="4_nCc2Uz1ycMVief2jAk-9" value="0x1C" style="rounded=0;whiteSpace=wrap;html=1;" vertex="1" parent="1">
          <mxGeometry x="330.21000000000004" y="545" width="60" height="70" as="geometry" />
        </mxCell>
        <mxCell id="4_nCc2Uz1ycMVief2jAk-10" value="0x05" style="rounded=0;whiteSpace=wrap;html=1;" vertex="1" parent="1">
          <mxGeometry x="390.21000000000004" y="545" width="60" height="70" as="geometry" />
        </mxCell>
        <mxCell id="4_nCc2Uz1ycMVief2jAk-11" value="0x1D" style="rounded=0;whiteSpace=wrap;html=1;" vertex="1" parent="1">
          <mxGeometry x="450.21000000000004" y="545" width="60" height="70" as="geometry" />
        </mxCell>
        <mxCell id="4_nCc2Uz1ycMVief2jAk-12" value="0x14" style="rounded=0;whiteSpace=wrap;html=1;" vertex="1" parent="1">
          <mxGeometry x="510.21000000000004" y="545" width="60" height="70" as="geometry" />
        </mxCell>
        <mxCell id="4_nCc2Uz1ycMVief2jAk-13" value="0x1F" style="rounded=0;whiteSpace=wrap;html=1;fillColor=#e1d5e7;strokeColor=#9673a6;" vertex="1" parent="1">
          <mxGeometry x="570.21" y="545" width="60" height="70" as="geometry" />
        </mxCell>
        <mxCell id="4_nCc2Uz1ycMVief2jAk-14" value="..." style="rounded=0;whiteSpace=wrap;html=1;" vertex="1" parent="1">
          <mxGeometry x="231.21000000000004" y="545" width="39" height="70" as="geometry" />
        </mxCell>
        <mxCell id="4_nCc2Uz1ycMVief2jAk-15" value="0x00" style="text;html=1;strokeColor=none;fillColor=none;align=center;verticalAlign=middle;whiteSpace=wrap;rounded=0;" vertex="1" parent="1">
          <mxGeometry x="-159.78999999999996" y="515" width="60" height="30" as="geometry" />
        </mxCell>
        <mxCell id="4_nCc2Uz1ycMVief2jAk-16" value="0x18" style="text;html=1;strokeColor=none;fillColor=none;align=center;verticalAlign=middle;whiteSpace=wrap;rounded=0;" vertex="1" parent="1">
          <mxGeometry x="200.21000000000004" y="515" width="60" height="30" as="geometry" />
        </mxCell>
        <mxCell id="4_nCc2Uz1ycMVief2jAk-17" value="0x80" style="text;html=1;strokeColor=none;fillColor=none;align=center;verticalAlign=middle;whiteSpace=wrap;rounded=0;" vertex="1" parent="1">
          <mxGeometry x="600.21" y="515" width="60" height="30" as="geometry" />
        </mxCell>
        <mxCell id="4_nCc2Uz1ycMVief2jAk-18" value="0x7c" style="text;html=1;strokeColor=none;fillColor=none;align=center;verticalAlign=middle;whiteSpace=wrap;rounded=0;" vertex="1" parent="1">
          <mxGeometry x="540.21" y="515" width="60" height="30" as="geometry" />
        </mxCell>
        <mxCell id="4_nCc2Uz1ycMVief2jAk-19" value="0x04" style="text;html=1;strokeColor=none;fillColor=none;align=center;verticalAlign=middle;whiteSpace=wrap;rounded=0;" vertex="1" parent="1">
          <mxGeometry x="-99.78999999999996" y="515" width="60" height="30" as="geometry" />
        </mxCell>
        <mxCell id="4_nCc2Uz1ycMVief2jAk-20" value="0x68" style="text;html=1;strokeColor=none;fillColor=none;align=center;verticalAlign=middle;whiteSpace=wrap;rounded=0;" vertex="1" parent="1">
          <mxGeometry x="240.21000000000004" y="515" width="60" height="30" as="geometry" />
        </mxCell>
        <mxCell id="4_nCc2Uz1ycMVief2jAk-21" value="0x6c" style="text;html=1;strokeColor=none;fillColor=none;align=center;verticalAlign=middle;whiteSpace=wrap;rounded=0;" vertex="1" parent="1">
          <mxGeometry x="300.21000000000004" y="515" width="60" height="30" as="geometry" />
        </mxCell>
        <mxCell id="4_nCc2Uz1ycMVief2jAk-22" value="Enc0x00" style="rounded=0;whiteSpace=wrap;html=1;" vertex="1" parent="1">
          <mxGeometry x="-168.03999999999996" y="699" width="60" height="70" as="geometry" />
        </mxCell>
        <mxCell id="4_nCc2Uz1ycMVief2jAk-23" value="Enc0x01" style="rounded=0;whiteSpace=wrap;html=1;" vertex="1" parent="1">
          <mxGeometry x="-108.03999999999996" y="699" width="60" height="70" as="geometry" />
        </mxCell>
        <mxCell id="4_nCc2Uz1ycMVief2jAk-24" value="Enc0x1a" style="rounded=0;whiteSpace=wrap;html=1;" vertex="1" parent="1">
          <mxGeometry x="-48.039999999999964" y="698.69" width="60" height="70" as="geometry" />
        </mxCell>
        <mxCell id="4_nCc2Uz1ycMVief2jAk-25" value="Enc0x1b" style="rounded=0;whiteSpace=wrap;html=1;" vertex="1" parent="1">
          <mxGeometry x="11.960000000000036" y="698.69" width="60" height="70" as="geometry" />
        </mxCell>
        <mxCell id="4_nCc2Uz1ycMVief2jAk-26" value="Enc0x1c" style="rounded=0;whiteSpace=wrap;html=1;" vertex="1" parent="1">
          <mxGeometry x="111.21000000000004" y="698.69" width="60" height="70" as="geometry" />
        </mxCell>
        <mxCell id="4_nCc2Uz1ycMVief2jAk-27" value="Enc0x1d" style="rounded=0;whiteSpace=wrap;html=1;" vertex="1" parent="1">
          <mxGeometry x="171.21000000000004" y="698.69" width="60" height="70" as="geometry" />
        </mxCell>
        <mxCell id="4_nCc2Uz1ycMVief2jAk-28" value="Enc0x1e" style="rounded=0;whiteSpace=wrap;html=1;" vertex="1" parent="1">
          <mxGeometry x="231.21000000000004" y="698.69" width="60" height="70" as="geometry" />
        </mxCell>
        <mxCell id="4_nCc2Uz1ycMVief2jAk-29" value="Enc0x1f" style="rounded=0;whiteSpace=wrap;html=1;fillColor=#f8cecc;strokeColor=#b85450;" vertex="1" parent="1">
          <mxGeometry x="291.21000000000004" y="698.69" width="60" height="70" as="geometry" />
        </mxCell>
        <mxCell id="4_nCc2Uz1ycMVief2jAk-30" value="..." style="rounded=0;whiteSpace=wrap;html=1;" vertex="1" parent="1">
          <mxGeometry x="72.25" y="699" width="39" height="70" as="geometry" />
        </mxCell>
        <mxCell id="4_nCc2Uz1ycMVief2jAk-31" value="0x00" style="text;html=1;strokeColor=none;fillColor=none;align=center;verticalAlign=middle;whiteSpace=wrap;rounded=0;" vertex="1" parent="1">
          <mxGeometry x="-168.03999999999996" y="669" width="60" height="30" as="geometry" />
        </mxCell>
        <mxCell id="4_nCc2Uz1ycMVief2jAk-32" value="0x01" style="text;html=1;strokeColor=none;fillColor=none;align=center;verticalAlign=middle;whiteSpace=wrap;rounded=0;" vertex="1" parent="1">
          <mxGeometry x="-108.53999999999996" y="669" width="60" height="30" as="geometry" />
        </mxCell>
        <mxCell id="4_nCc2Uz1ycMVief2jAk-33" value="0x02" style="text;html=1;strokeColor=none;fillColor=none;align=center;verticalAlign=middle;whiteSpace=wrap;rounded=0;" vertex="1" parent="1">
          <mxGeometry x="-48.539999999999964" y="668.69" width="60" height="30" as="geometry" />
        </mxCell>
        <mxCell id="4_nCc2Uz1ycMVief2jAk-34" value="0x03" style="text;html=1;strokeColor=none;fillColor=none;align=center;verticalAlign=middle;whiteSpace=wrap;rounded=0;" vertex="1" parent="1">
          <mxGeometry x="10.960000000000036" y="668.69" width="60" height="30" as="geometry" />
        </mxCell>
        <mxCell id="4_nCc2Uz1ycMVief2jAk-35" value="0x1c" style="text;html=1;strokeColor=none;fillColor=none;align=center;verticalAlign=middle;whiteSpace=wrap;rounded=0;" vertex="1" parent="1">
          <mxGeometry x="110.71000000000004" y="668.69" width="60" height="30" as="geometry" />
        </mxCell>
        <mxCell id="4_nCc2Uz1ycMVief2jAk-36" value="0x1d" style="text;html=1;strokeColor=none;fillColor=none;align=center;verticalAlign=middle;whiteSpace=wrap;rounded=0;" vertex="1" parent="1">
          <mxGeometry x="170.71000000000004" y="668.69" width="60" height="30" as="geometry" />
        </mxCell>
        <mxCell id="4_nCc2Uz1ycMVief2jAk-37" value="0x1e" style="text;html=1;strokeColor=none;fillColor=none;align=center;verticalAlign=middle;whiteSpace=wrap;rounded=0;" vertex="1" parent="1">
          <mxGeometry x="231.21000000000004" y="668.69" width="60" height="30" as="geometry" />
        </mxCell>
        <mxCell id="4_nCc2Uz1ycMVief2jAk-38" value="0x1f" style="text;html=1;strokeColor=none;fillColor=none;align=center;verticalAlign=middle;whiteSpace=wrap;rounded=0;" vertex="1" parent="1">
          <mxGeometry x="291.21000000000004" y="668.69" width="60" height="30" as="geometry" />
        </mxCell>
        <mxCell id="4_nCc2Uz1ycMVief2jAk-39" value="Enc0x00" style="rounded=0;whiteSpace=wrap;html=1;" vertex="1" parent="1">
          <mxGeometry x="-168.03999999999996" y="769" width="60" height="70" as="geometry" />
        </mxCell>
        <mxCell id="4_nCc2Uz1ycMVief2jAk-40" value="Enc0x01" style="rounded=0;whiteSpace=wrap;html=1;" vertex="1" parent="1">
          <mxGeometry x="-108.03999999999996" y="769" width="60" height="70" as="geometry" />
        </mxCell>
        <mxCell id="4_nCc2Uz1ycMVief2jAk-41" value="Enc0x1a" style="rounded=0;whiteSpace=wrap;html=1;" vertex="1" parent="1">
          <mxGeometry x="-48.039999999999964" y="768.69" width="60" height="70" as="geometry" />
        </mxCell>
        <mxCell id="4_nCc2Uz1ycMVief2jAk-42" value="Enc0x1b" style="rounded=0;whiteSpace=wrap;html=1;" vertex="1" parent="1">
          <mxGeometry x="11.960000000000036" y="768.69" width="60" height="70" as="geometry" />
        </mxCell>
        <mxCell id="4_nCc2Uz1ycMVief2jAk-43" value="Enc0x1c" style="rounded=0;whiteSpace=wrap;html=1;" vertex="1" parent="1">
          <mxGeometry x="111.21000000000004" y="768.69" width="60" height="70" as="geometry" />
        </mxCell>
        <mxCell id="4_nCc2Uz1ycMVief2jAk-44" value="Enc0x1d" style="rounded=0;whiteSpace=wrap;html=1;" vertex="1" parent="1">
          <mxGeometry x="171.21000000000004" y="768.69" width="60" height="70" as="geometry" />
        </mxCell>
        <mxCell id="4_nCc2Uz1ycMVief2jAk-45" value="Enc0x1e" style="rounded=0;whiteSpace=wrap;html=1;" vertex="1" parent="1">
          <mxGeometry x="231.21000000000004" y="768.69" width="60" height="70" as="geometry" />
        </mxCell>
        <mxCell id="4_nCc2Uz1ycMVief2jAk-46" value="Enc0x1f" style="rounded=0;whiteSpace=wrap;html=1;fillColor=#f8cecc;strokeColor=#b85450;" vertex="1" parent="1">
          <mxGeometry x="291.21000000000004" y="768.69" width="60" height="70" as="geometry" />
        </mxCell>
        <mxCell id="4_nCc2Uz1ycMVief2jAk-47" value="..." style="rounded=0;whiteSpace=wrap;html=1;" vertex="1" parent="1">
          <mxGeometry x="72.25" y="769" width="39" height="70" as="geometry" />
        </mxCell>
        <mxCell id="4_nCc2Uz1ycMVief2jAk-48" value="Enc0x00" style="rounded=0;whiteSpace=wrap;html=1;" vertex="1" parent="1">
          <mxGeometry x="-168.03999999999996" y="839" width="60" height="70" as="geometry" />
        </mxCell>
        <mxCell id="4_nCc2Uz1ycMVief2jAk-49" value="Enc0x01" style="rounded=0;whiteSpace=wrap;html=1;" vertex="1" parent="1">
          <mxGeometry x="-108.03999999999996" y="839" width="60" height="70" as="geometry" />
        </mxCell>
        <mxCell id="4_nCc2Uz1ycMVief2jAk-50" value="Enc0x1a" style="rounded=0;whiteSpace=wrap;html=1;" vertex="1" parent="1">
          <mxGeometry x="-48.039999999999964" y="838.69" width="60" height="70" as="geometry" />
        </mxCell>
        <mxCell id="4_nCc2Uz1ycMVief2jAk-51" value="Enc0x1b" style="rounded=0;whiteSpace=wrap;html=1;" vertex="1" parent="1">
          <mxGeometry x="11.960000000000036" y="838.69" width="60" height="70" as="geometry" />
        </mxCell>
        <mxCell id="4_nCc2Uz1ycMVief2jAk-52" value="Enc0x1c" style="rounded=0;whiteSpace=wrap;html=1;" vertex="1" parent="1">
          <mxGeometry x="111.21000000000004" y="838.69" width="60" height="70" as="geometry" />
        </mxCell>
        <mxCell id="4_nCc2Uz1ycMVief2jAk-53" value="Enc0x1d" style="rounded=0;whiteSpace=wrap;html=1;" vertex="1" parent="1">
          <mxGeometry x="171.21000000000004" y="838.69" width="60" height="70" as="geometry" />
        </mxCell>
        <mxCell id="4_nCc2Uz1ycMVief2jAk-54" value="Enc0x1e" style="rounded=0;whiteSpace=wrap;html=1;" vertex="1" parent="1">
          <mxGeometry x="231.21000000000004" y="838.69" width="60" height="70" as="geometry" />
        </mxCell>
        <mxCell id="4_nCc2Uz1ycMVief2jAk-55" value="Enc0x1f" style="rounded=0;whiteSpace=wrap;html=1;fillColor=#f8cecc;strokeColor=#b85450;" vertex="1" parent="1">
          <mxGeometry x="291.21000000000004" y="838.69" width="60" height="70" as="geometry" />
        </mxCell>
        <mxCell id="4_nCc2Uz1ycMVief2jAk-56" value="..." style="rounded=0;whiteSpace=wrap;html=1;" vertex="1" parent="1">
          <mxGeometry x="72.25" y="839" width="39" height="70" as="geometry" />
        </mxCell>
        <mxCell id="4_nCc2Uz1ycMVief2jAk-57" value="Enc0x00" style="rounded=0;whiteSpace=wrap;html=1;" vertex="1" parent="1">
          <mxGeometry x="-168.03999999999996" y="949" width="60" height="70" as="geometry" />
        </mxCell>
        <mxCell id="4_nCc2Uz1ycMVief2jAk-58" value="Enc0x01" style="rounded=0;whiteSpace=wrap;html=1;" vertex="1" parent="1">
          <mxGeometry x="-108.03999999999996" y="949" width="60" height="70" as="geometry" />
        </mxCell>
        <mxCell id="4_nCc2Uz1ycMVief2jAk-59" value="Enc0x1a" style="rounded=0;whiteSpace=wrap;html=1;" vertex="1" parent="1">
          <mxGeometry x="-48.039999999999964" y="948.69" width="60" height="70" as="geometry" />
        </mxCell>
        <mxCell id="4_nCc2Uz1ycMVief2jAk-60" value="Enc0x1b" style="rounded=0;whiteSpace=wrap;html=1;" vertex="1" parent="1">
          <mxGeometry x="11.960000000000036" y="948.69" width="60" height="70" as="geometry" />
        </mxCell>
        <mxCell id="4_nCc2Uz1ycMVief2jAk-61" value="Enc0x1c" style="rounded=0;whiteSpace=wrap;html=1;" vertex="1" parent="1">
          <mxGeometry x="111.21000000000004" y="948.69" width="60" height="70" as="geometry" />
        </mxCell>
        <mxCell id="4_nCc2Uz1ycMVief2jAk-62" value="Enc0x1d" style="rounded=0;whiteSpace=wrap;html=1;" vertex="1" parent="1">
          <mxGeometry x="171.21000000000004" y="948.69" width="60" height="70" as="geometry" />
        </mxCell>
        <mxCell id="4_nCc2Uz1ycMVief2jAk-63" value="Enc0x1e" style="rounded=0;whiteSpace=wrap;html=1;" vertex="1" parent="1">
          <mxGeometry x="231.21000000000004" y="948.69" width="60" height="70" as="geometry" />
        </mxCell>
        <mxCell id="4_nCc2Uz1ycMVief2jAk-64" value="Enc0x1f" style="rounded=0;whiteSpace=wrap;html=1;fillColor=#f8cecc;strokeColor=#b85450;" vertex="1" parent="1">
          <mxGeometry x="291.21000000000004" y="948.69" width="60" height="70" as="geometry" />
        </mxCell>
        <mxCell id="4_nCc2Uz1ycMVief2jAk-65" value="..." style="rounded=0;whiteSpace=wrap;html=1;" vertex="1" parent="1">
          <mxGeometry x="72.25" y="949" width="39" height="70" as="geometry" />
        </mxCell>
        <mxCell id="4_nCc2Uz1ycMVief2jAk-66" value="0x4050cc" style="text;html=1;strokeColor=none;fillColor=none;align=center;verticalAlign=middle;whiteSpace=wrap;rounded=0;" vertex="1" parent="1">
          <mxGeometry x="-188.28999999999996" y="565" width="60" height="30" as="geometry" />
        </mxCell>
        <mxCell id="4_nCc2Uz1ycMVief2jAk-67" value="0x40514b" style="text;html=1;strokeColor=none;fillColor=none;align=center;verticalAlign=middle;whiteSpace=wrap;rounded=0;" vertex="1" parent="1">
          <mxGeometry x="630.71" y="565" width="60" height="30" as="geometry" />
        </mxCell>
        <mxCell id="4_nCc2Uz1ycMVief2jAk-68" value="Enc0x00" style="rounded=0;whiteSpace=wrap;html=1;" vertex="1" parent="1">
          <mxGeometry x="-167.78999999999996" y="1019" width="60" height="70" as="geometry" />
        </mxCell>
        <mxCell id="4_nCc2Uz1ycMVief2jAk-69" value="Enc0x01" style="rounded=0;whiteSpace=wrap;html=1;" vertex="1" parent="1">
          <mxGeometry x="-107.78999999999996" y="1019" width="60" height="70" as="geometry" />
        </mxCell>
        <mxCell id="4_nCc2Uz1ycMVief2jAk-70" value="Enc0x1a" style="rounded=0;whiteSpace=wrap;html=1;" vertex="1" parent="1">
          <mxGeometry x="-47.789999999999964" y="1018.69" width="60" height="70" as="geometry" />
        </mxCell>
        <mxCell id="4_nCc2Uz1ycMVief2jAk-71" value="Enc0x1b" style="rounded=0;whiteSpace=wrap;html=1;" vertex="1" parent="1">
          <mxGeometry x="12.210000000000036" y="1018.69" width="60" height="70" as="geometry" />
        </mxCell>
        <mxCell id="4_nCc2Uz1ycMVief2jAk-72" value="Enc0x1c" style="rounded=0;whiteSpace=wrap;html=1;" vertex="1" parent="1">
          <mxGeometry x="111.46000000000004" y="1018.69" width="60" height="70" as="geometry" />
        </mxCell>
        <mxCell id="4_nCc2Uz1ycMVief2jAk-73" value="Enc0x1d" style="rounded=0;whiteSpace=wrap;html=1;" vertex="1" parent="1">
          <mxGeometry x="171.46000000000004" y="1018.69" width="60" height="70" as="geometry" />
        </mxCell>
        <mxCell id="4_nCc2Uz1ycMVief2jAk-74" value="Enc0x1e" style="rounded=0;whiteSpace=wrap;html=1;" vertex="1" parent="1">
          <mxGeometry x="231.46000000000004" y="1018.69" width="60" height="70" as="geometry" />
        </mxCell>
        <mxCell id="4_nCc2Uz1ycMVief2jAk-75" value="Enc0x1f" style="rounded=0;whiteSpace=wrap;html=1;fillColor=#f8cecc;strokeColor=#b85450;" vertex="1" parent="1">
          <mxGeometry x="291.46000000000004" y="1018.69" width="60" height="70" as="geometry" />
        </mxCell>
        <mxCell id="4_nCc2Uz1ycMVief2jAk-76" value="..." style="rounded=0;whiteSpace=wrap;html=1;" vertex="1" parent="1">
          <mxGeometry x="72.5" y="1019" width="39" height="70" as="geometry" />
        </mxCell>
        <mxCell id="4_nCc2Uz1ycMVief2jAk-77" value="Enc0x00" style="rounded=0;whiteSpace=wrap;html=1;" vertex="1" parent="1">
          <mxGeometry x="-167.78999999999996" y="1089" width="60" height="70" as="geometry" />
        </mxCell>
        <mxCell id="4_nCc2Uz1ycMVief2jAk-78" value="Enc0x01" style="rounded=0;whiteSpace=wrap;html=1;" vertex="1" parent="1">
          <mxGeometry x="-107.78999999999996" y="1089" width="60" height="70" as="geometry" />
        </mxCell>
        <mxCell id="4_nCc2Uz1ycMVief2jAk-79" value="Enc0x1a" style="rounded=0;whiteSpace=wrap;html=1;" vertex="1" parent="1">
          <mxGeometry x="-47.789999999999964" y="1088.69" width="60" height="70" as="geometry" />
        </mxCell>
        <mxCell id="4_nCc2Uz1ycMVief2jAk-80" value="Enc0x1b" style="rounded=0;whiteSpace=wrap;html=1;" vertex="1" parent="1">
          <mxGeometry x="12.210000000000036" y="1088.69" width="60" height="70" as="geometry" />
        </mxCell>
        <mxCell id="4_nCc2Uz1ycMVief2jAk-81" value="Enc0x1c" style="rounded=0;whiteSpace=wrap;html=1;" vertex="1" parent="1">
          <mxGeometry x="111.46000000000004" y="1088.69" width="60" height="70" as="geometry" />
        </mxCell>
        <mxCell id="4_nCc2Uz1ycMVief2jAk-82" value="Enc0x1d" style="rounded=0;whiteSpace=wrap;html=1;" vertex="1" parent="1">
          <mxGeometry x="171.46000000000004" y="1088.69" width="60" height="70" as="geometry" />
        </mxCell>
        <mxCell id="4_nCc2Uz1ycMVief2jAk-83" value="Enc0x1e" style="rounded=0;whiteSpace=wrap;html=1;" vertex="1" parent="1">
          <mxGeometry x="231.46000000000004" y="1088.69" width="60" height="70" as="geometry" />
        </mxCell>
        <mxCell id="4_nCc2Uz1ycMVief2jAk-84" value="Enc0x1f" style="rounded=0;whiteSpace=wrap;html=1;fillColor=#f8cecc;strokeColor=#b85450;" vertex="1" parent="1">
          <mxGeometry x="291.46000000000004" y="1088.69" width="60" height="70" as="geometry" />
        </mxCell>
        <mxCell id="4_nCc2Uz1ycMVief2jAk-85" value="..." style="rounded=0;whiteSpace=wrap;html=1;" vertex="1" parent="1">
          <mxGeometry x="72.5" y="1089" width="39" height="70" as="geometry" />
        </mxCell>
        <mxCell id="4_nCc2Uz1ycMVief2jAk-86" value="0x28" style="rounded=0;whiteSpace=wrap;html=1;" vertex="1" parent="1">
          <mxGeometry x="489.71000000000004" y="710" width="60" height="70" as="geometry" />
        </mxCell>
        <mxCell id="4_nCc2Uz1ycMVief2jAk-87" value="0x50" style="rounded=0;whiteSpace=wrap;html=1;" vertex="1" parent="1">
          <mxGeometry x="549.71" y="710" width="60" height="70" as="geometry" />
        </mxCell>
        <mxCell id="4_nCc2Uz1ycMVief2jAk-88" value="0x75" style="rounded=0;whiteSpace=wrap;html=1;" vertex="1" parent="1">
          <mxGeometry x="610.21" y="710" width="60" height="70" as="geometry" />
        </mxCell>
        <mxCell id="4_nCc2Uz1ycMVief2jAk-89" value="0xC8" style="rounded=0;whiteSpace=wrap;html=1;" vertex="1" parent="1">
          <mxGeometry x="670.21" y="710" width="60" height="70" as="geometry" />
        </mxCell>
        <mxCell id="4_nCc2Uz1ycMVief2jAk-90" style="edgeStyle=orthogonalEdgeStyle;rounded=0;orthogonalLoop=1;jettySize=auto;html=1;exitX=0.5;exitY=1;exitDx=0;exitDy=0;entryX=0.5;entryY=0;entryDx=0;entryDy=0;strokeColor=#0066CC;" edge="1" parent="1" source="4_nCc2Uz1ycMVief2jAk-94" target="4_nCc2Uz1ycMVief2jAk-134">
          <mxGeometry relative="1" as="geometry" />
        </mxCell>
        <mxCell id="4_nCc2Uz1ycMVief2jAk-91" value="0xB4" style="rounded=0;whiteSpace=wrap;html=1;" vertex="1" parent="1">
          <mxGeometry x="768.71" y="710" width="60" height="70" as="geometry" />
        </mxCell>
        <mxCell id="4_nCc2Uz1ycMVief2jAk-92" value="0x01" style="rounded=0;whiteSpace=wrap;html=1;" vertex="1" parent="1">
          <mxGeometry x="828.71" y="710" width="60" height="70" as="geometry" />
        </mxCell>
        <mxCell id="4_nCc2Uz1ycMVief2jAk-93" value="0xCB" style="rounded=0;whiteSpace=wrap;html=1;" vertex="1" parent="1">
          <mxGeometry x="888.71" y="710" width="60" height="70" as="geometry" />
        </mxCell>
        <mxCell id="4_nCc2Uz1ycMVief2jAk-94" value="0x05" style="rounded=0;whiteSpace=wrap;html=1;fillColor=#dae8fc;strokeColor=#6c8ebf;" vertex="1" parent="1">
          <mxGeometry x="948.71" y="710" width="60" height="70" as="geometry" />
        </mxCell>
        <mxCell id="4_nCc2Uz1ycMVief2jAk-95" value="..." style="rounded=0;whiteSpace=wrap;html=1;" vertex="1" parent="1">
          <mxGeometry x="729.71" y="710" width="39" height="70" as="geometry" />
        </mxCell>
        <mxCell id="4_nCc2Uz1ycMVief2jAk-96" value="0x405159" style="text;html=1;strokeColor=none;fillColor=none;align=center;verticalAlign=middle;whiteSpace=wrap;rounded=0;" vertex="1" parent="1">
          <mxGeometry x="430.21000000000004" y="730" width="60" height="30" as="geometry" />
        </mxCell>
        <mxCell id="4_nCc2Uz1ycMVief2jAk-97" value="0x405178" style="text;html=1;strokeColor=none;fillColor=none;align=center;verticalAlign=middle;whiteSpace=wrap;rounded=0;" vertex="1" parent="1">
          <mxGeometry x="1009.21" y="730" width="60" height="30" as="geometry" />
        </mxCell>
        <mxCell id="4_nCc2Uz1ycMVief2jAk-98" value="0x00" style="text;html=1;strokeColor=none;fillColor=none;align=center;verticalAlign=middle;whiteSpace=wrap;rounded=0;" vertex="1" parent="1">
          <mxGeometry x="489.71000000000004" y="680" width="60" height="30" as="geometry" />
        </mxCell>
        <mxCell id="4_nCc2Uz1ycMVief2jAk-99" value="0x01" style="text;html=1;strokeColor=none;fillColor=none;align=center;verticalAlign=middle;whiteSpace=wrap;rounded=0;" vertex="1" parent="1">
          <mxGeometry x="549.21" y="680" width="60" height="30" as="geometry" />
        </mxCell>
        <mxCell id="4_nCc2Uz1ycMVief2jAk-100" value="0x02" style="text;html=1;strokeColor=none;fillColor=none;align=center;verticalAlign=middle;whiteSpace=wrap;rounded=0;" vertex="1" parent="1">
          <mxGeometry x="609.71" y="680" width="60" height="30" as="geometry" />
        </mxCell>
        <mxCell id="4_nCc2Uz1ycMVief2jAk-101" value="0x03" style="text;html=1;strokeColor=none;fillColor=none;align=center;verticalAlign=middle;whiteSpace=wrap;rounded=0;" vertex="1" parent="1">
          <mxGeometry x="669.21" y="680" width="60" height="30" as="geometry" />
        </mxCell>
        <mxCell id="4_nCc2Uz1ycMVief2jAk-102" value="0x1c" style="text;html=1;strokeColor=none;fillColor=none;align=center;verticalAlign=middle;whiteSpace=wrap;rounded=0;" vertex="1" parent="1">
          <mxGeometry x="768.21" y="680" width="60" height="30" as="geometry" />
        </mxCell>
        <mxCell id="4_nCc2Uz1ycMVief2jAk-103" value="0x1d" style="text;html=1;strokeColor=none;fillColor=none;align=center;verticalAlign=middle;whiteSpace=wrap;rounded=0;" vertex="1" parent="1">
          <mxGeometry x="828.21" y="680" width="60" height="30" as="geometry" />
        </mxCell>
        <mxCell id="4_nCc2Uz1ycMVief2jAk-104" value="0x1e" style="text;html=1;strokeColor=none;fillColor=none;align=center;verticalAlign=middle;whiteSpace=wrap;rounded=0;" vertex="1" parent="1">
          <mxGeometry x="888.71" y="680" width="60" height="30" as="geometry" />
        </mxCell>
        <mxCell id="4_nCc2Uz1ycMVief2jAk-105" value="0x1f" style="text;html=1;strokeColor=none;fillColor=none;align=center;verticalAlign=middle;whiteSpace=wrap;rounded=0;" vertex="1" parent="1">
          <mxGeometry x="948.71" y="680" width="60" height="30" as="geometry" />
        </mxCell>
        <mxCell id="4_nCc2Uz1ycMVief2jAk-106" value="0x000000" style="text;html=1;strokeColor=none;fillColor=none;align=center;verticalAlign=middle;whiteSpace=wrap;rounded=0;" vertex="1" parent="1">
          <mxGeometry x="-240.03999999999996" y="719" width="60" height="30" as="geometry" />
        </mxCell>
        <mxCell id="4_nCc2Uz1ycMVief2jAk-107" value="0x00001f" style="text;html=1;strokeColor=none;fillColor=none;align=center;verticalAlign=middle;whiteSpace=wrap;rounded=0;" vertex="1" parent="1">
          <mxGeometry x="360.71000000000004" y="718.69" width="60" height="30" as="geometry" />
        </mxCell>
        <mxCell id="4_nCc2Uz1ycMVief2jAk-108" value="0x00003f" style="text;html=1;strokeColor=none;fillColor=none;align=center;verticalAlign=middle;whiteSpace=wrap;rounded=0;" vertex="1" parent="1">
          <mxGeometry x="360.21000000000004" y="788.69" width="60" height="30" as="geometry" />
        </mxCell>
        <mxCell id="4_nCc2Uz1ycMVief2jAk-109" value="0x00005f" style="text;html=1;strokeColor=none;fillColor=none;align=center;verticalAlign=middle;whiteSpace=wrap;rounded=0;" vertex="1" parent="1">
          <mxGeometry x="360.71000000000004" y="858.69" width="60" height="30" as="geometry" />
        </mxCell>
        <mxCell id="4_nCc2Uz1ycMVief2jAk-110" value="0x4939f" style="text;html=1;strokeColor=none;fillColor=none;align=center;verticalAlign=middle;whiteSpace=wrap;rounded=0;" vertex="1" parent="1">
          <mxGeometry x="360.71000000000004" y="968.69" width="60" height="30" as="geometry" />
        </mxCell>
        <mxCell id="4_nCc2Uz1ycMVief2jAk-111" value="0x49380" style="text;html=1;strokeColor=none;fillColor=none;align=center;verticalAlign=middle;whiteSpace=wrap;rounded=0;" vertex="1" parent="1">
          <mxGeometry x="-240.03999999999996" y="969" width="60" height="30" as="geometry" />
        </mxCell>
        <mxCell id="4_nCc2Uz1ycMVief2jAk-112" value="0x000040" style="text;html=1;strokeColor=none;fillColor=none;align=center;verticalAlign=middle;whiteSpace=wrap;rounded=0;" vertex="1" parent="1">
          <mxGeometry x="-240.03999999999996" y="859" width="60" height="30" as="geometry" />
        </mxCell>
        <mxCell id="4_nCc2Uz1ycMVief2jAk-113" value="0x000020" style="text;html=1;strokeColor=none;fillColor=none;align=center;verticalAlign=middle;whiteSpace=wrap;rounded=0;" vertex="1" parent="1">
          <mxGeometry x="-240.03999999999996" y="789" width="60" height="30" as="geometry" />
        </mxCell>
        <mxCell id="4_nCc2Uz1ycMVief2jAk-114" value="0x493df" style="text;html=1;strokeColor=none;fillColor=none;align=center;verticalAlign=middle;whiteSpace=wrap;rounded=0;" vertex="1" parent="1">
          <mxGeometry x="360.71000000000004" y="1108.69" width="60" height="30" as="geometry" />
        </mxCell>
        <mxCell id="4_nCc2Uz1ycMVief2jAk-115" value="0x493c0" style="text;html=1;strokeColor=none;fillColor=none;align=center;verticalAlign=middle;whiteSpace=wrap;rounded=0;" vertex="1" parent="1">
          <mxGeometry x="-240.03999999999996" y="1109" width="60" height="30" as="geometry" />
        </mxCell>
        <mxCell id="4_nCc2Uz1ycMVief2jAk-116" value="0x493bf" style="text;html=1;strokeColor=none;fillColor=none;align=center;verticalAlign=middle;whiteSpace=wrap;rounded=0;" vertex="1" parent="1">
          <mxGeometry x="360.21000000000004" y="1038.69" width="60" height="30" as="geometry" />
        </mxCell>
        <mxCell id="4_nCc2Uz1ycMVief2jAk-117" value="0x493a0" style="text;html=1;strokeColor=none;fillColor=none;align=center;verticalAlign=middle;whiteSpace=wrap;rounded=0;" vertex="1" parent="1">
          <mxGeometry x="-240.03999999999996" y="1039" width="60" height="30" as="geometry" />
        </mxCell>
        <mxCell id="4_nCc2Uz1ycMVief2jAk-118" style="edgeStyle=orthogonalEdgeStyle;rounded=0;orthogonalLoop=1;jettySize=auto;html=1;exitX=0.5;exitY=1;exitDx=0;exitDy=0;entryX=0.5;entryY=0;entryDx=0;entryDy=0;strokeColor=#0066CC;" edge="1" parent="1" source="4_nCc2Uz1ycMVief2jAk-13" target="4_nCc2Uz1ycMVief2jAk-94">
          <mxGeometry relative="1" as="geometry">
            <Array as="points">
              <mxPoint x="600.21" y="645" />
              <mxPoint x="978.21" y="645" />
            </Array>
          </mxGeometry>
        </mxCell>
        <mxCell id="4_nCc2Uz1ycMVief2jAk-119" value="..." style="rounded=0;whiteSpace=wrap;html=1;" vertex="1" parent="1">
          <mxGeometry x="-168.03999999999996" y="909" width="60.11857707509882" height="40" as="geometry" />
        </mxCell>
        <mxCell id="4_nCc2Uz1ycMVief2jAk-120" value="..." style="rounded=0;whiteSpace=wrap;html=1;" vertex="1" parent="1">
          <mxGeometry x="-107.92142292490098" y="909" width="60.11857707509882" height="40" as="geometry" />
        </mxCell>
        <mxCell id="4_nCc2Uz1ycMVief2jAk-121" value="..." style="rounded=0;whiteSpace=wrap;html=1;" vertex="1" parent="1">
          <mxGeometry x="-48.25146245059295" y="908.69" width="60.11857707509882" height="40" as="geometry" />
        </mxCell>
        <mxCell id="4_nCc2Uz1ycMVief2jAk-122" value="..." style="rounded=0;whiteSpace=wrap;html=1;" vertex="1" parent="1">
          <mxGeometry x="11.86711462450603" y="908.69" width="60.11857707509882" height="40" as="geometry" />
        </mxCell>
        <mxCell id="4_nCc2Uz1ycMVief2jAk-123" value="..." style="rounded=0;whiteSpace=wrap;html=1;" vertex="1" parent="1">
          <mxGeometry x="111.23569169960501" y="908.69" width="60.11857707509882" height="40" as="geometry" />
        </mxCell>
        <mxCell id="4_nCc2Uz1ycMVief2jAk-124" value="..." style="rounded=0;whiteSpace=wrap;html=1;" vertex="1" parent="1">
          <mxGeometry x="171.35426877470354" y="908.69" width="60.11857707509882" height="40" as="geometry" />
        </mxCell>
        <mxCell id="4_nCc2Uz1ycMVief2jAk-125" value="..." style="rounded=0;whiteSpace=wrap;html=1;" vertex="1" parent="1">
          <mxGeometry x="231.47284584980252" y="908.69" width="60.11857707509882" height="40" as="geometry" />
        </mxCell>
        <mxCell id="4_nCc2Uz1ycMVief2jAk-126" value="..." style="rounded=0;whiteSpace=wrap;html=1;fillColor=#f8cecc;strokeColor=#b85450;" vertex="1" parent="1">
          <mxGeometry x="291.59142292490105" y="908.69" width="60.11857707509882" height="40" as="geometry" />
        </mxCell>
        <mxCell id="4_nCc2Uz1ycMVief2jAk-127" value="..." style="rounded=0;whiteSpace=wrap;html=1;" vertex="1" parent="1">
          <mxGeometry x="71.96146245059299" y="909" width="39.077075098814234" height="40" as="geometry" />
        </mxCell>
        <mxCell id="4_nCc2Uz1ycMVief2jAk-128" value="" style="endArrow=classic;html=1;rounded=0;strokeColor=#FF0000;exitX=1;exitY=0.5;exitDx=0;exitDy=0;" edge="1" parent="1" source="4_nCc2Uz1ycMVief2jAk-126">
          <mxGeometry width="50" height="50" relative="1" as="geometry">
            <mxPoint x="171.3499999999999" y="928.21" as="sourcePoint" />
            <mxPoint x="439.71000000000004" y="928" as="targetPoint" />
          </mxGeometry>
        </mxCell>
        <mxCell id="4_nCc2Uz1ycMVief2jAk-129" value="Enc0x1f" style="rounded=0;whiteSpace=wrap;html=1;fillColor=#f8cecc;strokeColor=#b85450;" vertex="1" parent="1">
          <mxGeometry x="451.71000000000004" y="825.0000000000001" width="60" height="70" as="geometry" />
        </mxCell>
        <mxCell id="4_nCc2Uz1ycMVief2jAk-130" value="0x1c" style="text;html=1;strokeColor=none;fillColor=none;align=center;verticalAlign=middle;whiteSpace=wrap;rounded=0;" vertex="1" parent="1">
          <mxGeometry x="450.21000000000004" y="795" width="60" height="30" as="geometry" />
        </mxCell>
        <mxCell id="4_nCc2Uz1ycMVief2jAk-131" value="Enc0x1f" style="rounded=0;whiteSpace=wrap;html=1;fillColor=#f8cecc;strokeColor=#b85450;" vertex="1" parent="1">
          <mxGeometry x="451.71000000000004" y="895.0000000000001" width="60" height="70" as="geometry" />
        </mxCell>
        <mxCell id="4_nCc2Uz1ycMVief2jAk-132" value="Enc0x1f" style="rounded=0;whiteSpace=wrap;html=1;fillColor=#f8cecc;strokeColor=#b85450;" vertex="1" parent="1">
          <mxGeometry x="451.82000000000016" y="1005.0000000000001" width="60" height="70" as="geometry" />
        </mxCell>
        <mxCell id="4_nCc2Uz1ycMVief2jAk-133" value="..." style="rounded=0;whiteSpace=wrap;html=1;fillColor=#f8cecc;strokeColor=#b85450;" vertex="1" parent="1">
          <mxGeometry x="451.70569169960527" y="965" width="60.11857707509882" height="40" as="geometry" />
        </mxCell>
        <mxCell id="4_nCc2Uz1ycMVief2jAk-134" value="0x05" style="rounded=0;whiteSpace=wrap;html=1;fillColor=#dae8fc;strokeColor=#6c8ebf;" vertex="1" parent="1">
          <mxGeometry x="578.21" y="825" width="60" height="70" as="geometry" />
        </mxCell>
        <mxCell id="4_nCc2Uz1ycMVief2jAk-135" value="&lt;font style=&quot;font-size: 24px;&quot;&gt;-&lt;/font&gt;" style="text;html=1;strokeColor=#666666;fillColor=#f5f5f5;align=center;verticalAlign=middle;whiteSpace=wrap;rounded=0;fontColor=#333333;" vertex="1" parent="1">
          <mxGeometry x="537.21" y="842.5" width="21.14" height="25" as="geometry" />
        </mxCell>
        <mxCell id="4_nCc2Uz1ycMVief2jAk-136" value="0x05" style="rounded=0;whiteSpace=wrap;html=1;fillColor=#dae8fc;strokeColor=#6c8ebf;" vertex="1" parent="1">
          <mxGeometry x="578.21" y="895" width="60" height="70" as="geometry" />
        </mxCell>
        <mxCell id="4_nCc2Uz1ycMVief2jAk-137" value="0x05" style="rounded=0;whiteSpace=wrap;html=1;fillColor=#dae8fc;strokeColor=#6c8ebf;" vertex="1" parent="1">
          <mxGeometry x="578.0999999999999" y="1005" width="60" height="70" as="geometry" />
        </mxCell>
        <mxCell id="4_nCc2Uz1ycMVief2jAk-138" value="..." style="rounded=0;whiteSpace=wrap;html=1;fillColor=#dae8fc;strokeColor=#6c8ebf;" vertex="1" parent="1">
          <mxGeometry x="578.0956916996051" y="965" width="60.11857707509882" height="40" as="geometry" />
        </mxCell>
        <mxCell id="4_nCc2Uz1ycMVief2jAk-139" value="&lt;font style=&quot;font-size: 24px;&quot;&gt;-&lt;/font&gt;" style="text;html=1;strokeColor=#666666;fillColor=#f5f5f5;align=center;verticalAlign=middle;whiteSpace=wrap;rounded=0;fontColor=#333333;" vertex="1" parent="1">
          <mxGeometry x="537.21" y="917.5" width="21.14" height="25" as="geometry" />
        </mxCell>
        <mxCell id="4_nCc2Uz1ycMVief2jAk-140" value="&lt;font style=&quot;font-size: 24px;&quot;&gt;-&lt;/font&gt;" style="text;html=1;strokeColor=#666666;fillColor=#f5f5f5;align=center;verticalAlign=middle;whiteSpace=wrap;rounded=0;fontColor=#333333;" vertex="1" parent="1">
          <mxGeometry x="537.71" y="1027.5" width="21.14" height="25" as="geometry" />
        </mxCell>
        <mxCell id="4_nCc2Uz1ycMVief2jAk-141" value="&lt;font style=&quot;font-size: 24px;&quot;&gt;-&lt;/font&gt;" style="text;html=1;strokeColor=#666666;fillColor=#f5f5f5;align=center;verticalAlign=middle;whiteSpace=wrap;rounded=0;fontColor=#333333;" vertex="1" parent="1">
          <mxGeometry x="537.2100000000005" y="1097.5" width="21.14" height="25" as="geometry" />
        </mxCell>
        <mxCell id="4_nCc2Uz1ycMVief2jAk-142" value="Enc0x1f" style="rounded=0;whiteSpace=wrap;html=1;fillColor=#f8cecc;strokeColor=#b85450;" vertex="1" parent="1">
          <mxGeometry x="451.82000000000016" y="1075.0000000000002" width="60" height="70" as="geometry" />
        </mxCell>
        <mxCell id="4_nCc2Uz1ycMVief2jAk-143" value="0x05" style="rounded=0;whiteSpace=wrap;html=1;fillColor=#dae8fc;strokeColor=#6c8ebf;" vertex="1" parent="1">
          <mxGeometry x="578.1000000000004" y="1075" width="60" height="70" as="geometry" />
        </mxCell>
        <mxCell id="4_nCc2Uz1ycMVief2jAk-144" value="" style="endArrow=classic;html=1;rounded=0;strokeColor=#006600;edgeStyle=orthogonalEdgeStyle;" edge="1" parent="1">
          <mxGeometry width="50" height="50" relative="1" as="geometry">
            <mxPoint x="648.21" y="984.52" as="sourcePoint" />
            <mxPoint x="728.21" y="984.52" as="targetPoint" />
          </mxGeometry>
        </mxCell>
        <mxCell id="4_nCc2Uz1ycMVief2jAk-145" value="Dec0x1f" style="rounded=0;whiteSpace=wrap;html=1;fillColor=#d5e8d4;strokeColor=#82b366;" vertex="1" parent="1">
          <mxGeometry x="745.71" y="825" width="60" height="70" as="geometry" />
        </mxCell>
        <mxCell id="4_nCc2Uz1ycMVief2jAk-146" value="Dec0x1f" style="rounded=0;whiteSpace=wrap;html=1;fillColor=#d5e8d4;strokeColor=#82b366;" vertex="1" parent="1">
          <mxGeometry x="745.71" y="895" width="60" height="70" as="geometry" />
        </mxCell>
        <mxCell id="4_nCc2Uz1ycMVief2jAk-147" value="Dec0x1f" style="rounded=0;whiteSpace=wrap;html=1;fillColor=#d5e8d4;strokeColor=#82b366;" vertex="1" parent="1">
          <mxGeometry x="745.71" y="1005" width="60" height="70" as="geometry" />
        </mxCell>
        <mxCell id="4_nCc2Uz1ycMVief2jAk-148" value="..." style="rounded=0;whiteSpace=wrap;html=1;fillColor=#d5e8d4;strokeColor=#82b366;" vertex="1" parent="1">
          <mxGeometry x="745.7056916996048" y="965" width="60.11857707509882" height="40" as="geometry" />
        </mxCell>
        <mxCell id="4_nCc2Uz1ycMVief2jAk-149" value="Dec0x1f" style="rounded=0;whiteSpace=wrap;html=1;fillColor=#d5e8d4;strokeColor=#82b366;" vertex="1" parent="1">
          <mxGeometry x="745.8500000000004" y="1075" width="60" height="70" as="geometry" />
        </mxCell>
        <mxCell id="4_nCc2Uz1ycMVief2jAk-150" value="&lt;font style=&quot;font-size: 18px;&quot;&gt;Array of Offsets&lt;/font&gt;" style="text;html=1;strokeColor=none;fillColor=none;align=center;verticalAlign=middle;whiteSpace=wrap;rounded=0;" vertex="1" parent="1">
          <mxGeometry x="183.21000000000004" y="480" width="135" height="30" as="geometry" />
        </mxCell>
        <mxCell id="4_nCc2Uz1ycMVief2jAk-151" value="&lt;span style=&quot;font-size: 18px;&quot;&gt;Encrypted Data&lt;/span&gt;" style="text;html=1;strokeColor=none;fillColor=none;align=center;verticalAlign=middle;whiteSpace=wrap;rounded=0;" vertex="1" parent="1">
          <mxGeometry x="24" y="635" width="135" height="30" as="geometry" />
        </mxCell>
        <mxCell id="4_nCc2Uz1ycMVief2jAk-152" value="&lt;span style=&quot;font-size: 18px;&quot;&gt;Decryption Key&lt;/span&gt;" style="text;html=1;strokeColor=none;fillColor=none;align=center;verticalAlign=middle;whiteSpace=wrap;rounded=0;" vertex="1" parent="1">
          <mxGeometry x="680.21" y="655" width="135" height="30" as="geometry" />
        </mxCell>
        <mxCell id="4_nCc2Uz1ycMVief2jAk-153" value="&lt;span style=&quot;font-size: 18px;&quot;&gt;Decryption Process&lt;/span&gt;" style="text;html=1;strokeColor=none;fillColor=none;align=center;verticalAlign=middle;whiteSpace=wrap;rounded=0;" vertex="1" parent="1">
          <mxGeometry x="540.21" y="1158.69" width="202.11" height="30" as="geometry" />
        </mxCell>
      </root>
    </mxGraphModel>
  </diagram>
</mxfile>
